<svg class="railroad-diagram" width="350" height="130" viewBox="0 0 350 130" xmlns="http://www.w3.org/2000/svg" xmlns:xlink="http://www.w3.org/1999/xlink">
<g transform="translate(.5 .5)">
<g>
<path d="M20 47v20m10 -20v20m-10 -10h20"></path>
</g>
<path d="M40 57h10"></path>
<g>
<path d="M50 57h0"></path>
<path d="M300 57h0"></path>
<rect x="50" y="36" width="250" height="74" rx="10" ry="10" class="group-box"></rect>
<g>
<path d="M50 57h10"></path>
<path d="M290 57h10"></path>
<g class="non-terminal ">
<path d="M60 57h0"></path>
<path d="M130 57h0"></path>
<rect x="60" y="46" width="70" height="22"></rect>
<text x="95" y="61">Value</text>
</g>
<path d="M130 57h10"></path>
<path d="M140 57h10"></path>
<g class="terminal ">
<path d="M150 57h0"></path>
<path d="M180 57h0"></path>
<rect x="150" y="46" width="30" height="22" rx="10" ry="10"></rect>
<text x="165" y="61">,</text>
</g>
<path d="M180 57h10"></path>
<path d="M190 57h10"></path>
<g>
<path d="M200 57h0"></path>
<path d="M290 57h0"></path>
<path d="M200 57h10"></path>
<g class="non-terminal ">
<path d="M210 57h0"></path>
<path d="M280 57h0"></path>
<rect x="210" y="46" width="70" height="22"></rect>
<text x="245" y="61">Value</text>
</g>
<path d="M280 57h10"></path>
<path d="M210 57a10 10 0 0 0 -10 10v12a10 10 0 0 0 10 10"></path>
<g class="terminal ">
<path d="M210 89h20"></path>
<path d="M260 89h20"></path>
<rect x="230" y="78" width="30" height="22" rx="10" ry="10"></rect>
<text x="245" y="93">,</text>
</g>
<path d="M280 89a10 10 0 0 0 10 -10v-12a10 10 0 0 0 -10 -10"></path>
</g>
</g>
<g class="comment ">
<path d="M50 28h0"></path>
<path d="M164 28h0"></path>
<text x="107" y="33" class="comment">List (inline)</text>
</g>
</g>
<path d="M300 57h10"></path>
<path d="M 310 57 h 20 m -10 -10 v 20 m 10 -20 v 20"></path>
</g>
<style>
	svg {
		background-color: hsl(30,20%,95%);
	}
	path {
		stroke-width: 3;
		stroke: black;
		fill: rgba(0,0,0,0);
	}
	text {
		font: bold 14px monospace;
		text-anchor: middle;
		white-space: pre;
	}
	text.diagram-text {
		font-size: 12px;
	}
	text.diagram-arrow {
		font-size: 16px;
	}
	text.label {
		text-anchor: start;
	}
	text.comment {
		font: italic 12px monospace;
	}
	g.non-terminal text {
		/&#42;font-style: italic;&#42;/
	}
	rect {
		stroke-width: 3;
		stroke: black;
		fill: hsl(120,100%,90%);
	}
	rect.group-box {
		stroke: gray;
		stroke-dasharray: 10 5;
		fill: none;
	}
	path.diagram-text {
		stroke-width: 3;
		stroke: black;
		fill: white;
		cursor: help;
	}
	g.diagram-text:hover path.diagram-text {
		fill: #eee;
	}</style>
</svg>
