<svg class="railroad-diagram" width="310" height="98" viewBox="0 0 310 98" xmlns="http://www.w3.org/2000/svg" xmlns:xlink="http://www.w3.org/1999/xlink">
<g transform="translate(.5 .5)">
<g>
<path d="M20 47v20m10 -20v20m-10 -10h20"></path>
</g>
<path d="M40 57h10"></path>
<g>
<path d="M50 57h0"></path>
<path d="M260 57h0"></path>
<rect x="50" y="36" width="210" height="42" rx="10" ry="10" class="group-box"></rect>
<g>
<path d="M50 57h10"></path>
<path d="M250 57h10"></path>
<g class="non-terminal ">
<path d="M60 57h0"></path>
<path d="M120 57h0"></path>
<rect x="60" y="46" width="60" height="22"></rect>
<text x="90" y="61">Date</text>
</g>
<path d="M120 57h10"></path>
<path d="M130 57h10"></path>
<g class="terminal ">
<path d="M140 57h0"></path>
<path d="M170 57h0"></path>
<rect x="140" y="46" width="30" height="22" rx="10" ry="10"></rect>
<text x="155" y="61">T</text>
</g>
<path d="M170 57h10"></path>
<path d="M180 57h10"></path>
<g class="non-terminal ">
<path d="M190 57h0"></path>
<path d="M250 57h0"></path>
<rect x="190" y="46" width="60" height="22"></rect>
<text x="220" y="61">Time</text>
</g>
</g>
<g class="comment ">
<path d="M50 28h0"></path>
<path d="M132 28h0"></path>
<text x="91" y="33" class="comment">Timestamp</text>
</g>
</g>
<path d="M260 57h10"></path>
<path d="M 270 57 h 20 m -10 -10 v 20 m 10 -20 v 20"></path>
</g>
<style>
	svg {
		background-color: hsl(30,20%,95%);
	}
	path {
		stroke-width: 3;
		stroke: black;
		fill: rgba(0,0,0,0);
	}
	text {
		font: bold 14px monospace;
		text-anchor: middle;
		white-space: pre;
	}
	text.diagram-text {
		font-size: 12px;
	}
	text.diagram-arrow {
		font-size: 16px;
	}
	text.label {
		text-anchor: start;
	}
	text.comment {
		font: italic 12px monospace;
	}
	g.non-terminal text {
		/&#42;font-style: italic;&#42;/
	}
	rect {
		stroke-width: 3;
		stroke: black;
		fill: hsl(120,100%,90%);
	}
	rect.group-box {
		stroke: gray;
		stroke-dasharray: 10 5;
		fill: none;
	}
	path.diagram-text {
		stroke-width: 3;
		stroke: black;
		fill: white;
		cursor: help;
	}
	g.diagram-text:hover path.diagram-text {
		fill: #eee;
	}</style>
</svg>
